<svg width="96" height="96" viewBox="0 0 96 96" fill="none" xmlns="http://www.w3.org/2000/svg">
<g clip-path="url(#clip0_124_24)">
<path fill-rule="evenodd" clip-rule="evenodd" d="M25.1721 25.1718C25.9222 24.422 26.9395 24.0007 28.0001 24.0007C29.0608 24.0007 30.078 24.422 30.8281 25.1718L48.0001 42.3438L65.1721 25.1718C65.5411 24.7898 65.9825 24.4851 66.4705 24.2754C66.9585 24.0658 67.4834 23.9554 68.0145 23.9508C68.5456 23.9462 69.0723 24.0474 69.5639 24.2485C70.0555 24.4497 70.5021 24.7467 70.8777 25.1223C71.2533 25.4978 71.5503 25.9444 71.7514 26.436C71.9525 26.9276 72.0537 27.4543 72.0491 27.9854C72.0445 28.5166 71.9342 29.0414 71.7245 29.5295C71.5149 30.0175 71.2102 30.4588 70.8281 30.8278L50.8281 50.8278C50.078 51.5777 49.0608 51.999 48.0001 51.999C46.9395 51.999 45.9222 51.5777 45.1721 50.8278L25.1721 30.8278C24.4222 30.0777 24.001 29.0605 24.001 27.9998C24.001 26.9392 24.4222 25.9219 25.1721 25.1718ZM25.1721 49.1718C25.9222 48.422 26.9395 48.0007 28.0001 48.0007C29.0608 48.0007 30.078 48.422 30.8281 49.1718L48.0001 66.3438L65.1721 49.1718C65.9265 48.4432 66.9369 48.04 67.9857 48.0491C69.0345 48.0583 70.0378 48.4789 70.7794 49.2206C71.521 49.9622 71.9417 50.9654 71.9508 52.0142C71.9599 53.063 71.5568 54.0734 70.8281 54.8278L50.8281 74.8278C50.078 75.5777 49.0608 75.999 48.0001 75.999C46.9395 75.999 45.9222 75.5777 45.1721 74.8278L25.1721 54.8278C24.4222 54.0777 24.001 53.0605 24.001 51.9998C24.001 50.9392 24.4222 49.9219 25.1721 49.1718Z" fill="#0F0096"/>
</g>
<defs>
<clipPath id="clip0_124_24">
<rect width="96" height="96" fill="white"/>
</clipPath>
</defs>
</svg>
